<?xml version="1.0" encoding="UTF-8" standalone="no"?>
<!-- Created with Inkscape (http://www.inkscape.org/) -->

<svg
   xmlns:dc="http://purl.org/dc/elements/1.1/"
   xmlns:cc="http://creativecommons.org/ns#"
   xmlns:rdf="http://www.w3.org/1999/02/22-rdf-syntax-ns#"
   xmlns:svg="http://www.w3.org/2000/svg"
   xmlns="http://www.w3.org/2000/svg"
   xmlns:sodipodi="http://sodipodi.sourceforge.net/DTD/sodipodi-0.dtd"
   xmlns:inkscape="http://www.inkscape.org/namespaces/inkscape"
   id="svg2"
   version="1.1"
   inkscape:version="0.91 r13725"
   xml:space="preserve"
   width="483.39999"
   height="600"
   viewBox="0 0 483.39999 600"
   sodipodi:docname="Logo Stade Lavallois.svg"><metadata
     id="metadata8"><rdf:RDF><cc:Work
         rdf:about=""><dc:format>image/svg+xml</dc:format><dc:type
           rdf:resource="http://purl.org/dc/dcmitype/StillImage" /><dc:title></dc:title></cc:Work></rdf:RDF></metadata><defs
     id="defs6" /><sodipodi:namedview
     pagecolor="#ffffff"
     bordercolor="#666666"
     borderopacity="1"
     objecttolerance="10"
     gridtolerance="10"
     guidetolerance="10"
     inkscape:pageopacity="0"
     inkscape:pageshadow="2"
     inkscape:window-width="1280"
     inkscape:window-height="691"
     id="namedview4"
     showgrid="false"
     inkscape:zoom="0.477447"
     inkscape:cx="187.13844"
     inkscape:cy="736.78354"
     inkscape:window-x="0"
     inkscape:window-y="1"
     inkscape:window-maximized="1"
     inkscape:current-layer="g10" /><g
     id="g10"
     inkscape:groupmode="layer"
     inkscape:label="Logo Stade Lavallois"
     transform="matrix(1.25,0,0,-1.25,0,600.00003)"><g
       id="g6524"
       transform="matrix(0.99999698,0,0,0.99999698,-32.746046,-389.36807)"><g
         id="g6480"><path
           d="m 226.09561,389.36927 -0.26164,0.0581 C 144.66848,408.67223 100.11758,456.71163 99.681514,457.20583 33.516519,523.35629 32.746145,630.11857 32.746145,631.19418 l 0,197.68101 0.552344,0.34885 c 0.174424,0.10174 16.744744,10.17475 48.664412,20.10241 29.419589,9.14275 78.287489,20.04427 144.132709,20.04427 65.85975,0 114.74219,-10.90152 144.14724,-20.04427 31.91967,-9.92766 48.48999,-20.00067 48.66442,-20.10241 l 0.5378,-0.34885 0,-197.68101 c 0,-1.07561 -0.75583,-107.83789 -66.9499,-174.03196 -0.40699,-0.45059 -44.94336,-48.48999 -126.12339,-67.73481 l -0.27617,-0.0581 z"
           style="fill:#ffffff;fill-opacity:1;fill-rule:nonzero;stroke:none"
           id="path118"
           inkscape:connector-curvature="0"
           sodipodi:nodetypes="cccscccscccscccc" /><path
           inkscape:connector-curvature="0"
           id="path6415"
           style="fill:#000000;fill-opacity:1;fill-rule:nonzero;stroke:none"
           d="m 226.09852,390.97252 -1.1483,0.27617 C 144.52603,410.31909 101.55948,456.64331 99.771634,458.59105 34.144447,524.21824 33.388608,626.8234 33.388608,631.15494 l 0,195.2536 2.369265,1.45353 c 2.630902,1.62796 66.121387,39.7833 190.340647,39.7833 124.21925,0 187.70974,-38.15534 190.35518,-39.7833 l 2.36926,-1.45353 0,-195.2536 c 0,-4.33154 -0.75584,-106.9367 -66.54291,-172.72378 -1.62796,-1.78785 -44.59451,-48.11207 -125.03324,-67.18247 z"
           sodipodi:nodetypes="cccsccsccsccc" /><path
           d="m 43.3308,820.72521 0,-189.57027 c 0,-1.01748 0.799445,-102.8668 63.62131,-165.68866 0.58141,-0.61049 42.58862,-45.77188 119.14641,-64.2754 76.57232,18.50352 118.57953,63.65038 119.00105,64.11551 63.0399,63.05443 63.7812,164.83107 63.7812,165.84855 l 0,189.57027 c -12.54402,6.75894 -74.65365,36.97797 -182.78225,36.97797 -108.11407,0 -170.209162,-30.20449 -182.76772,-36.97797"
           style="fill:#ffffff;fill-opacity:1;fill-rule:nonzero;stroke:none"
           id="path116"
           inkscape:connector-curvature="0"
           sodipodi:nodetypes="cscccscsc" /></g><g
         id="g6520"><path
           d="m 359.90821,498.84384 c 36.97797,55.03091 36.97797,127.18447 36.97797,127.18447 l 0,186.73588 c -60.10374,34.41975 -170.87778,35.27733 -170.87778,35.27733 0,0 -110.75951,-0.85758 -170.877789,-35.27733 L 359.90821,498.84384"
           style="fill:#ec6608;fill-opacity:1;fill-rule:evenodd;stroke:none"
           id="path122"
           inkscape:connector-curvature="0" /><path
           d="M 360.73091,500.15203 336.108,471.77899 c -60.48167,-53.66458 -109.9746,-58.43218 -109.9746,-58.43218 0,0 -49.49293,4.7676 -109.97459,58.43218 -60.990407,54.11517 -60.990407,154.64178 -60.990407,154.64178 l 0,186.43063"
           style="fill:#000000;fill-opacity:1;fill-rule:evenodd;stroke:none"
           id="path124"
           inkscape:connector-curvature="0" /></g><g
         id="g6485"><path
           d="m 291.16028,500.15203 c -4.15712,0 -6.52638,1.96227 -6.52638,6.11939 l 0,138.3767 c 0,15.14585 -6.54092,21.68677 -21.68677,21.68677 l -31.46907,0 0,-67.16794 0,-46.54225 c -25.07351,32.00689 -81.67424,34.2308 -81.67424,53.7518 0,9.50613 10.65443,13.83767 21.03268,13.83767 9.52067,0 20.17509,-4.60772 20.17509,-12.10797 l 0,-8.93925 32.37027,0 0,67.16794 -11.20677,0 0,-9.30264 c -12.58763,6.36649 -27.87884,9.30264 -40.75717,9.30264 -40.9316,0 -73.50536,-24.79734 -73.50536,-61.97881 0,-64.56611 93.38974,-67.1534 93.38974,-89.93032 0,-11.52655 -10.36372,-15.27667 -20.75651,-15.27667 -25.93109,0 -47.25448,24.21592 -47.25448,24.21592 L 94.74385,487.33183 c 0,0 26.81775,-34.01276 75.23506,-34.01276 28.37304,0 49.42026,11.00327 61.49915,27.38463 l 0,-5.00016 c 0,-15.16039 6.52638,-21.68677 21.67223,-21.68677 l 68.15634,0 30.001,28.82363 9.9858,17.31163 -70.13315,0 z"
           style="fill:#ffffff;fill-opacity:1;fill-rule:nonzero;stroke:none"
           id="path126"
           inkscape:connector-curvature="0" /><g
           id="g6474"><path
             inkscape:connector-curvature="0"
             id="path128"
             style="fill:#ec6608;fill-opacity:1;fill-rule:nonzero;stroke:none"
             d="m 211.75066,518.95498 c 2.61636,0 3.19778,1.26458 3.72105,2.70358 l 2.28205,0 0,-21.55595 -3.38674,0 0,16.45403 -2.61636,0 0,2.39834 z" /><path
             inkscape:connector-curvature="0"
             id="path130"
             style="fill:#ec6608;fill-opacity:1;fill-rule:nonzero;stroke:none"
             d="m 227.57386,512.82396 0,3.88094 c 0,1.54075 -0.68317,2.0931 -1.75878,2.0931 -1.07562,0 -1.74425,-0.55235 -1.74425,-2.0931 l 0,-3.88094 c 0,-1.54075 0.66863,-2.12216 1.74425,-2.12216 1.07561,0 1.75878,0.58141 1.75878,2.12216 m 3.38674,-7.3549 c 0,-3.63384 -1.65703,-5.61065 -5.17459,-5.61065 -3.3286,0 -5.04378,1.97681 -5.04378,5.42169 l 0,0.55235 3.19778,0 0,-0.77038 c 0,-1.54075 0.68317,-2.12216 1.75878,-2.12216 1.1919,0 1.87507,0.58141 1.87507,2.64544 l 0,3.93908 c -0.58142,-1.22097 -1.62796,-1.90413 -3.13964,-1.90413 -2.48555,0 -3.75013,1.75878 -3.75013,4.92749 l 0,3.93908 c 0,3.45942 1.80239,5.4217 5.13099,5.4217 3.3286,0 5.14552,-1.96228 5.14552,-5.4217 l 0,-11.01781 z" /><path
             inkscape:connector-curvature="0"
             id="path132"
             style="fill:#ec6608;fill-opacity:1;fill-rule:nonzero;stroke:none"
             d="m 237.24278,505.06353 c 0,-1.54075 0.68317,-2.12217 1.75878,-2.12217 1.07562,0 1.74425,0.58142 1.74425,2.12217 l 0,11.64283 c 0,1.54075 -0.66863,2.12216 -1.74425,2.12216 -1.07561,0 -1.75878,-0.58141 -1.75878,-2.12216 l 0,-11.64283 z m -3.38674,11.4248 c 0,3.44488 1.81692,5.42169 5.14552,5.42169 3.3286,0 5.13099,-1.97681 5.13099,-5.42169 l 0,-11.20677 c 0,-3.44488 -1.80239,-5.42169 -5.13099,-5.42169 -3.3286,0 -5.14552,1.97681 -5.14552,5.42169 l 0,11.20677 z" /><path
             inkscape:connector-curvature="0"
             id="path134"
             style="fill:#ec6608;fill-opacity:1;fill-rule:nonzero;stroke:none"
             d="m 252.20113,518.82852 c -1.07562,0 -1.75878,-0.58141 -1.75878,-2.12216 l 0,-2.31113 -3.19778,0 0,2.0931 c 0,3.44488 1.72971,5.42169 5.05831,5.42169 3.31406,0 5.04377,-1.97681 5.04377,-5.42169 0,-6.77349 -6.74441,-9.30264 -6.74441,-12.83473 0,-0.15989 0,-0.30525 0.0291,-0.46514 l 6.4101,0 0,-3.08149 -9.79684,0 0,2.64543 c 0,6.35196 6.71534,7.39851 6.71534,13.61964 0,1.93321 -0.68316,2.45648 -1.75878,2.45648" /></g><g
           id="g6446"><g
             id="g6417"><path
               d="m 71.379699,784.01032 11.163163,0 0,-60.84505 18.358168,0 0,-10.14569 -29.521331,0 0,70.99074 z"
               style="fill:#ffffff;fill-opacity:1;fill-rule:nonzero;stroke:none"
               id="path136"
               inkscape:connector-curvature="0" /><path
               d="m 120.17493,735.53051 10.75617,0 -5.37808,35.90236 -5.37809,-35.90236 z m 25.45143,-22.51529 -11.25038,0 -1.9332,12.87834 -13.69232,0 -1.91866,-12.87834 -10.24744,0 11.35212,70.99074 16.33776,0 11.35212,-70.99074 z"
               style="fill:#ffffff;fill-opacity:1;fill-rule:nonzero;stroke:none"
               id="path138"
               inkscape:connector-curvature="0" /><path
               d="m 161.90597,726.09996 8.51773,57.90891 10.24743,0 -10.95967,-70.99074 -16.62846,0 -10.95966,70.99074 11.26491,0 8.51772,-57.90891 z"
               style="fill:#ffffff;fill-opacity:1;fill-rule:nonzero;stroke:none"
               id="path140"
               inkscape:connector-curvature="0" /><path
               d="m 190.75577,735.53051 10.75617,0 -5.37808,35.90236 -5.37809,-35.90236 z m 25.45143,-22.51529 -11.25038,0 -1.9332,12.87834 -13.69232,0 -1.91867,-12.87834 -10.24743,0 11.35212,70.99074 16.33776,0 11.35212,-70.99074 z"
               style="fill:#ffffff;fill-opacity:1;fill-rule:nonzero;stroke:none"
               id="path142"
               inkscape:connector-curvature="0" /><path
               d="m 221.37888,784.01032 11.16317,0 0,-60.84505 18.35817,0 0,-10.14569 -29.52134,0 0,70.99074 z"
               style="fill:#ffffff;fill-opacity:1;fill-rule:nonzero;stroke:none"
               id="path144"
               inkscape:connector-curvature="0" /><path
               d="m 255.75939,784.01032 11.16316,0 0,-60.84505 18.35817,0 0,-10.14569 -29.52133,0 0,70.99074 z"
               style="fill:#ffffff;fill-opacity:1;fill-rule:nonzero;stroke:none"
               id="path146"
               inkscape:connector-curvature="0" /><path
               d="m 300.39024,729.34426 c 0,-5.07285 2.22391,-7.00605 5.77054,-7.00605 3.56116,0 5.78507,1.9332 5.78507,7.00605 l 0,38.32976 c 0,5.07284 -2.22391,7.00605 -5.78507,7.00605 -3.54663,0 -5.77054,-1.93321 -5.77054,-7.00605 l 0,-38.32976 z m -11.16317,37.63206 c 0,11.35213 5.98858,17.84944 16.93371,17.84944 10.95966,0 16.94824,-6.49731 16.94824,-17.84944 l 0,-36.91983 c 0,-11.36666 -5.98858,-17.84943 -16.94824,-17.84943 -10.94513,0 -16.93371,6.48277 -16.93371,17.84943 l 0,36.91983 z"
               style="fill:#ffffff;fill-opacity:1;fill-rule:nonzero;stroke:none"
               id="path148"
               inkscape:connector-curvature="0" /><path
               d="m 330.30402,713.01232 11.14863,0 0,70.99073 -11.14863,0 0,-70.99073 z"
               style="fill:#ffffff;fill-opacity:1;fill-rule:nonzero;stroke:none"
               id="path150"
               inkscape:connector-curvature="0" /><path
               d="m 364.58424,784.81994 c 10.84338,0 16.42496,-6.49731 16.42496,-17.84943 l 0,-2.22391 -10.53814,0 0,2.93614 c 0,5.07285 -2.03495,6.99151 -5.58158,6.99151 -3.54663,0 -5.58158,-1.91866 -5.58158,-6.99151 0,-14.60804 21.80305,-17.34069 21.80305,-37.63207 0,-11.35212 -5.68333,-17.84943 -16.62846,-17.84943 -10.94513,0 -16.643,6.49731 -16.643,17.84943 l 0,4.36061 10.55268,0 0,-5.07284 c 0,-5.07284 2.23845,-6.88976 5.78508,-6.88976 3.54662,0 5.78507,1.81692 5.78507,6.88976 0,14.60805 -21.80305,17.35523 -21.80305,37.63207 0,11.35212 5.58158,17.84943 16.42497,17.84943"
               style="fill:#ffffff;fill-opacity:1;fill-rule:nonzero;stroke:none"
               id="path152"
               inkscape:connector-curvature="0" /></g><g
             id="g6428"><path
               d="m 179.78157,833.2765 c 6.16299,0 9.3317,-3.67745 9.3317,-10.13115 l 0,-1.26458 -5.98857,0 0,1.67157 c 0,2.878 -1.14829,3.96815 -3.16871,3.96815 -2.02041,0 -3.16871,-1.09015 -3.16871,-3.96815 0,-8.2997 12.38413,-9.84045 12.38413,-21.35246 0,-6.4537 -3.22685,-10.14569 -9.44798,-10.14569 -6.22114,0 -9.43346,3.69199 -9.43346,10.14569 l 0,2.47101 5.98857,0 0,-2.878 c 0,-2.878 1.26458,-3.92455 3.27046,-3.92455 2.02042,0 3.28499,1.04655 3.28499,3.92455 0,8.28516 -12.36959,9.84044 -12.36959,21.35246 0,6.4537 3.15417,10.13115 9.31717,10.13115"
               style="fill:#ffffff;fill-opacity:1;fill-rule:nonzero;stroke:none"
               id="path154"
               inkscape:connector-curvature="0" /><path
               d="m 192.68316,832.81573 19.57914,0 0,-5.75601 -6.62813,0 0,-34.53603 -6.33742,0 0,34.53603 -6.61359,0 0,5.75601 z"
               style="fill:#ffffff;fill-opacity:1;fill-rule:nonzero;stroke:none"
               id="path156"
               inkscape:connector-curvature="0" /><path
               d="m 220.60705,805.30027 6.10486,0 -3.05243,20.37859 -3.05243,-20.37859 z m 14.44816,-12.77658 -6.39556,0 -1.09015,7.31129 -7.76189,0 -1.10469,-7.31129 -5.81415,0 6.45371,40.29204 9.27356,0 6.43917,-40.29204 z"
               style="fill:#ffffff;fill-opacity:1;fill-rule:nonzero;stroke:none"
               id="path158"
               inkscape:connector-curvature="0" /><path
               d="m 246.05412,827.05972 0,-28.78003 3.5757,0 c 2.00588,0 3.21232,1.03201 3.21232,3.91002 l 0,20.96 c 0,2.878 -1.20644,3.91001 -3.21232,3.91001 l -3.5757,0 z m -6.32288,5.75601 10.00033,0 c 6.33742,0 9.44799,-3.50303 9.44799,-9.95673 l 0,-20.37859 c 0,-6.4537 -3.11057,-9.95672 -9.44799,-9.95672 l -10.00033,0 0,40.29204 z"
               style="fill:#ffffff;fill-opacity:1;fill-rule:nonzero;stroke:none"
               id="path160"
               inkscape:connector-curvature="0" /><path
               d="m 271.27589,815.83551 8.69215,0 0,-5.75601 -8.69215,0 0,-11.80272 10.9306,0 0,-5.756 -17.26802,0 0,40.29204 17.26802,0 0,-5.75601 -10.9306,0 0,-11.2213 z"
               style="fill:#ffffff;fill-opacity:1;fill-rule:nonzero;stroke:none"
               id="path162"
               inkscape:connector-curvature="0" /></g><g
             id="g6435"><path
               d="m 164.37262,686.16404 2.67451,17.76222 5.47983,0 0,-25.01537 -3.72105,0 0,17.93664 -2.71811,-17.93664 -3.72106,0 -2.92161,17.68954 0,-17.68954 -3.43034,0 0,25.01537 5.46529,0 2.89254,-17.76222 z"
               style="fill:#ffffff;fill-opacity:1;fill-rule:nonzero;stroke:none"
               id="path164"
               inkscape:connector-curvature="0" /><path
               d="m 180.03303,686.84284 3.79373,0 -1.90413,12.64577 -1.8896,-12.64577 z m 8.96832,-7.93631 -3.96815,0 -0.66863,4.53503 -4.82574,0 -0.68317,-4.53503 -3.60477,0 3.99723,25.01537 5.756,0 3.99723,-25.01537 z"
               style="fill:#ffffff;fill-opacity:1;fill-rule:nonzero;stroke:none"
               id="path166"
               inkscape:connector-curvature="0" /><path
               d="m 193.65848,687.20041 -4.97109,16.73021 4.11351,0 3.00882,-11.41027 2.99428,11.41027 3.75013,0 -4.9711,-16.73021 0,-8.28516 -3.92455,0 0,8.28516 z"
               style="fill:#ffffff;fill-opacity:1;fill-rule:nonzero;stroke:none"
               id="path168"
               inkscape:connector-curvature="0" /><path
               d="m 208.96132,693.3823 5.39262,0 0,-3.5757 -5.39262,0 0,-7.32582 6.78801,0 0,-3.57571 -10.71256,0 0,25.01537 10.71256,0 0,-3.5757 -6.78801,0 0,-6.96244 z"
               style="fill:#ffffff;fill-opacity:1;fill-rule:nonzero;stroke:none"
               id="path170"
               inkscape:connector-curvature="0" /><path
               d="m 222.58532,697.02777 0,-18.1256 -3.5321,0 0,25.0299 4.92749,0 4.04084,-14.98596 0,14.98596 3.50302,0 0,-25.0299 -4.04083,0 -4.89842,18.1256 z"
               style="fill:#ffffff;fill-opacity:1;fill-rule:nonzero;stroke:none"
               id="path172"
               inkscape:connector-curvature="0" /><path
               d="m 238.74719,697.02777 0,-18.1256 -3.53209,0 0,25.0299 4.92749,0 4.04083,-14.98596 0,14.98596 3.50303,0 0,-25.0299 -4.04084,0 -4.89842,18.1256 z"
               style="fill:#ffffff;fill-opacity:1;fill-rule:nonzero;stroke:none"
               id="path174"
               inkscape:connector-curvature="0" /><path
               d="m 255.33641,693.3823 5.39262,0 0,-3.5757 -5.39262,0 0,-7.32582 6.78802,0 0,-3.57571 -10.71257,0 0,25.01537 10.71257,0 0,-3.5757 -6.78802,0 0,-6.96244 z"
               style="fill:#ffffff;fill-opacity:1;fill-rule:nonzero;stroke:none"
               id="path176"
               inkscape:connector-curvature="0" /><path
               d="m 275.82401,692.81106 5.07284,0 0,-3.5757 -5.07284,0 0,-10.33465 -3.92455,0 0,25.02991 10.39279,0 0,-3.5757 -6.46824,0 0,-7.54386 z"
               style="fill:#ffffff;fill-opacity:1;fill-rule:nonzero;stroke:none"
               id="path178"
               inkscape:connector-curvature="0" /><path
               d="m 296.48604,688.23678 0,-3.3286 c 0,-3.99722 -2.00588,-6.27928 -5.85776,-6.27928 -3.8664,0 -5.85775,2.28206 -5.85775,6.27928 l 0,13.00916 c 0,4.01176 1.99135,6.29381 5.85775,6.29381 3.85188,0 5.85776,-2.28205 5.85776,-6.29381 l 0,-2.42741 -3.72106,0 0,2.68904 c 0,1.77332 -0.78491,2.45648 -2.03495,2.45648 -1.25004,0 -2.03495,-0.68316 -2.03495,-2.45648 l 0,-13.51789 c 0,-1.78785 0.78491,-2.42741 2.03495,-2.42741 1.25004,0 2.03495,0.63956 2.03495,2.42741 l 0,3.5757 3.72106,0 z"
               style="fill:#ffffff;fill-opacity:1;fill-rule:nonzero;stroke:none"
               id="path180"
               inkscape:connector-curvature="0" /></g></g></g></g></g></svg>